<svg width="205" height="205" viewBox="0 0 205 205" fill="none" xmlns="http://www.w3.org/2000/svg">
<path d="M205 102.5C205 159.109 159.109 205 102.5 205C45.8908 205 0 159.109 0 102.5C0 45.8908 45.8908 0 102.5 0C159.109 0 205 45.8908 205 102.5Z" fill="#D4AF37"/>
<path d="M101.5 0C107.988 0 112.67 0.498142 112.688 0.5V23.6162C124.638 25.7684 135.133 30.8443 143.242 37.1797C144.281 37.9914 145.25 38.821 146.154 39.668L158.688 27V73.5H112.688L123.232 62.8389C122.028 60.879 120.37 59.13 118.258 57.5938C113.857 54.2761 108.372 52.6172 101.805 52.6172C95.2371 52.6172 89.9557 54.073 85.9609 56.9844C82.0339 59.8281 80.0704 63.6877 80.0703 68.5625C80.0703 72.5572 81.797 75.8073 85.25 78.3125C88.7031 80.8177 94.2891 82.8151 102.008 84.3047L120.898 87.9609C135.388 90.737 145.984 95.5105 152.688 102.281C159.458 109.052 162.844 118.261 162.844 129.906C162.844 145.208 157.359 157.227 146.391 165.961C135.422 174.628 119.917 182 100.688 182C100.017 182 99.3521 181.988 98.6914 181.968L112.688 188.5V204.481C112.683 204.482 108.496 205 101.5 205C94.5115 205 90.2016 204.218 90.1875 204.216V181.153C76.4142 178.921 65.0049 172.586 56.1875 166C56.0653 165.908 55.9448 165.816 55.8252 165.724L43.1875 178.5V132H89.1875L79.1641 142.132C80.3577 143.584 81.8439 144.892 83.625 146.055C88.5677 149.169 94.8984 150.727 102.617 150.727C109.591 150.727 115.245 149.203 119.578 146.156C123.911 143.109 126.078 139.182 126.078 134.375C126.078 130.313 124.318 127.096 120.797 124.727C117.276 122.289 111.318 120.224 102.922 118.531L83.625 114.672C70.2188 112.167 60.0963 107.292 53.2578 100.047C46.4194 92.8021 43 83.4244 43 71.9141C43.0001 57.5601 48.2813 46.0833 58.8438 37.4844C69.4739 28.8178 82.5157 22.5 100.188 22.5C102.483 22.5 104.742 22.6125 106.959 22.8262L90.1875 15V0.701172C90.2083 0.698153 95.0141 0 101.5 0Z" fill="#404040"/>
</svg>
